<?xml version="1.0" standalone="no"?>
<!DOCTYPE svg PUBLIC "-//W3C//DTD SVG 1.1//EN" "http://www.w3.org/Graphics/SVG/1.1/DTD/svg11.dtd" >
<svg xmlns="http://www.w3.org/2000/svg">
<metadata>
This is a custom SVG webfont generated by Font Squirrel.
Copyright   : Copyright c 2006 Envy Technologies Ltd All rights reserved
Designer    : Damien Guard
Foundry     : Envy Technologies Ltd
Foundry URL : httpwwwenvytechcouk
</metadata>
<defs>
<font id="EnvyCodeB10ptRegular" horiz-adv-x="1100" >
<font-face units-per-em="2048" ascent="1638" descent="-410" />
<missing-glyph horiz-adv-x="500" />
<glyph unicode=" " />
<glyph unicode="!" d="M473 0v315h157v-315h-157zM473 473v945h157v-945h-157z" />
<glyph unicode="&#x22;" d="M158 946v472h157v-472h-157zM630 946v472h158v-472h-158z" />
<glyph unicode="#" d="M158 315v158h157v315h-157v158h157v157h158v-157h157v157h158v-157h158v-158h-158v-315h158v-158h-158v-157h-158v157h-157v-157h-158v157h-157zM473 473h157v315h-157v-315z" />
<glyph unicode="$" d="M158 0v158h315v472h-158v158h158v315h-158v158h158v157h157v-157h316v-158h-316v-473h158v-157h-158v-315h158v-158h-158v-158h-157v158h-315zM158 788v315h157v-315h-157zM788 158v315h158v-315h-158z" />
<glyph unicode="%" d="M158 158v157h157v-157h-157zM158 946v315h157v-315h-157zM315 315v315h158v-157h157v-315h-157v157h-158zM315 788v158h158v-158h-158zM315 1261v157h158v-157h-158zM473 630v158h157v-158h-157zM473 946v315h157v-158h158v-315h-158v158h-157zM630 0v158h158v-158h-158z M630 473v157h158v-157h-158zM788 158v315h158v-315h-158zM788 1103v158h158v-158h-158z" />
<glyph unicode="&#x26;" d="M158 158v472h157v-472h-157zM158 788v473h157v-473h-157zM315 0v158h315v-158h-315zM315 630v158h315v-158h-315zM315 1261v157h315v-157h-315zM630 158v472h316v-157h-158v-315h-158zM630 788v473h158v-473h-158zM788 0v158h158v-158h-158z" />
<glyph unicode="'" d="M473 946v472h157v-472h-157z" />
<glyph unicode="(" d="M315 158v945h158v-945h-158zM473 158h157v-316h-157v316zM473 1103v315h157v-315h-157zM630 -158h158v-157h-158v157zM630 1418v158h158v-158h-158z" />
<glyph unicode=")" d="M315 -158h158v-157h-158v157zM315 1418v158h158v-158h-158zM473 158h157v-316h-157v316zM473 1103v315h157v-315h-157zM630 158v945h158v-945h-158z" />
<glyph unicode="*" d="M158 788v158h157v-158h-157zM158 1103v158h157v-158h-157zM315 946v157h158v315h157v-315h158v-157h-158v-316h-157v316h-158zM788 788v158h158v-158h-158zM788 1103v158h158v-158h-158z" />
<glyph unicode="+" d="M158 630v158h315v315h157v-315h316v-158h-316v-315h-157v315h-315z" />
<glyph unicode="," d="M315 0h158v315h315v-315h-158v-158h-315v158z" />
<glyph unicode="-" d="M158 630v158h788v-158h-788z" />
<glyph unicode="." d="M315 0v315h315v-315h-315z" />
<glyph unicode="/" d="M158 0v158h157v-316h-157v158zM315 158v315h158v-315h-158zM473 473v315h157v-315h-157zM630 788v315h158v-315h-158zM788 1103v315h158v-315h-158z" />
<glyph unicode="0" d="M158 158v1103h157v-631h158v-157h-158v-315h-157zM315 0v158h473v-158h-473zM315 1261v157h473v-157h-473zM473 630v158h157v-158h-157zM630 788v158h158v315h158v-1103h-158v630h-158z" />
<glyph unicode="1" d="M315 0v158h158v945h-158v158h158v157h157v-1260h158v-158h-473z" />
<glyph unicode="2" d="M158 0v473h157v-315h631v-158h-788zM158 1103v158h157v-158h-157zM315 473v157h158v-157h-158zM315 1261v157h473v-157h-473zM473 630v158h157v-158h-157zM630 788v158h158v-158h-158zM788 946v315h158v-315h-158z" />
<glyph unicode="3" d="M158 158v157h157v-157h-157zM158 1103v158h157v-158h-157zM315 0v158h473v-158h-473zM315 1261v157h473v-157h-473zM473 630v158h315v-158h-315zM788 158v472h158v-472h-158zM788 788v473h158v-473h-158z" />
<glyph unicode="4" d="M158 315v473h157v-315h315v630h-157v158h157v157h158v-945h158v-158h-158v-315h-158v315h-472zM315 788v315h158v-315h-158z" />
<glyph unicode="5" d="M158 0v158h630v-158h-630zM158 630v788h788v-157h-631v-473h473v-158h-630zM788 158v472h158v-472h-158z" />
<glyph unicode="6" d="M158 158v788h157v-158h473v-158h-473v-472h-157zM315 0v158h473v-158h-473zM315 946v157h158v-157h-158zM473 1103v158h157v-158h-157zM630 1261v157h158v-157h-158zM788 158v472h158v-472h-158z" />
<glyph unicode="7" d="M158 1261v157h788v-472h-158v315h-630zM315 0v315h158v-315h-158zM473 315v315h157v-315h-157zM630 630v316h158v-316h-158z" />
<glyph unicode="8" d="M158 158v472h157v-472h-157zM158 788v473h157v-473h-157zM315 0v158h473v-158h-473zM315 630v158h473v-158h-473zM315 1261v157h473v-157h-473zM788 158v472h158v-472h-158zM788 788v473h158v-473h-158z" />
<glyph unicode="9" d="M158 0v158h157v-158h-157zM158 788v473h157v-473h-157zM315 158v157h158v-157h-158zM315 630v158h473v-315h-158v157h-315zM315 1261v157h473v-157h-473zM473 315v158h157v-158h-157zM788 788v473h158v-473h-158z" />
<glyph unicode=":" d="M315 0v315h315v-315h-315zM315 630v316h315v-316h-315z" />
<glyph unicode=";" d="M158 0h157v315h315v-315h-157v-158h-315v158zM315 630v316h315v-316h-315z" />
<glyph unicode="&#x3c;" d="M158 630v158h157v-158h-157zM315 473v157h158v-157h-158zM315 788v158h158v-158h-158zM473 315v158h157v-158h-157zM473 946v157h157v-157h-157zM630 158v157h158v-157h-158zM630 1103v158h158v-158h-158z" />
<glyph unicode="=" d="M0 473v157h946v-157h-316h-630zM0 788v158h946v-158h-316h-630z" />
<glyph unicode="&#x3e;" d="M158 158v157h157v-157h-157zM158 1103v158h157v-158h-157zM315 315v158h158v-158h-158zM315 946v157h158v-157h-158zM473 473v157h157v-157h-157zM473 788v158h157v-158h-157zM630 630v158h158v-158h-158z" />
<glyph unicode="?" d="M158 946v315h157v-315h-157zM315 1261v157h473v-157h-473zM473 0v315h157v-315h-157zM473 473v157h157v-157h-157zM630 630v158h158v-158h-158zM788 788v473h158v-473h-158z" />
<glyph unicode="@" d="M0 0v1103h158v-1261h-158v158zM158 -158h157v-157h-157v157zM158 1103v158h157v-158h-157zM315 158v630h158v-630h-158zM315 -315h473v-158h-473v158zM315 1261v157h473v-157h-158h-315zM473 0v158h157v630h-157v158h315v-788h158v-158h-158h-315zM788 1103v158h158v-158 h-158zM946 158v945h157v-945h-157z" />
<glyph unicode="A" d="M158 0v1261h157v-473h473v473h158v-1261h-158v630h-473v-630h-157zM315 1261v157h473v-157h-473z" />
<glyph unicode="B" d="M158 0v1418h630v-157h-473v-473h473v-158h-473v-472h473v-158h-630zM788 158v472h158v-472h-158zM788 788v473h158v-473h-158z" />
<glyph unicode="C" d="M158 315v788h157v-788h-157zM315 158v157h158v-157h-158zM315 1103v158h158v-158h-158zM473 0v158h473v-158h-473zM473 1261v157h473v-157h-473z" />
<glyph unicode="D" d="M158 0v1418h472v-157h-315v-1103h315v-158h-472zM630 158v157h158v-157h-158zM630 1103v158h158v-158h-158zM788 315v788h158v-788h-158z" />
<glyph unicode="E" d="M158 0v1418h788v-157h-631v-473h473v-158h-473v-472h631v-158h-788z" />
<glyph unicode="F" d="M158 0v1418h788v-157h-631v-473h473v-158h-473v-630h-157z" />
<glyph unicode="G" d="M158 315v788h157v-788h-157zM315 158v157h158v-157h-158zM315 1103v158h158v-158h-158zM473 0v158h315v472h-158v158h316v-788h-473zM473 1261v157h473v-157h-473z" />
<glyph unicode="H" d="M158 0v1418h157v-630h473v630h158v-1418h-158v630h-473v-630h-157z" />
<glyph unicode="I" d="M158 0v158h315v1103h-315v157h788v-157h-316v-1103h316v-158h-788z" />
<glyph unicode="J" d="M158 158v157h157v-157h-157zM315 0v158h473v-158h-473zM788 158v1260h158v-1260h-158z" />
<glyph unicode="K" d="M158 0v1418h157v-630h158v-158h-158v-630h-157zM473 473v157h157v-157h-157zM473 788v158h157v-158h-157zM630 315v158h158v-158h-158zM630 946v157h158v-157h-158zM788 0v315h158v-315h-158zM788 1103v315h158v-315h-158z" />
<glyph unicode="L" d="M158 0v1418h157v-1260h631v-158h-788z" />
<glyph unicode="M" d="M158 0v1418h157v-315h158v-315h-158v-788h-157zM473 473v315h157v-315h-157zM630 788v315h158v315h158v-1418h-158v788h-158z" />
<glyph unicode="N" d="M158 0v1418h157v-315h158v-315h-158v-788h-157zM473 473v315h157v-315h-157zM630 158v315h158v945h158v-1418h-158v158h-158z" />
<glyph unicode="O" d="M158 158v1103h157v-1103h-157zM315 0v158h473v-158h-473zM315 1261v157h473v-157h-473zM788 158v1103h158v-1103h-158z" />
<glyph unicode="P" d="M158 0v1418h630v-157h-473v-473h473v-158h-473v-630h-157zM788 788v473h158v-473h-158z" />
<glyph unicode="Q" d="M158 158v1103h157v-1103h-157zM315 0v158h315v-158h-157h-158zM315 1261v157h473v-157h-158h-315zM630 158v157h158v-157h-158zM788 158h158v-316h-158v316zM788 315v946h158v-946h-158z" />
<glyph unicode="R" d="M158 0v1418h630v-157h-473v-473h473v-158h-158v-157h-157v157h-158v-630h-157zM630 315v158h158v-158h-158zM788 0v315h158v-315h-158zM788 788v473h158v-473h-158z" />
<glyph unicode="S" d="M158 0v158h630v-158h-630zM158 946v315h157v-315h-157zM315 788v158h158v-158h-158zM315 1261v157h631v-157h-631zM473 630v158h157v-158h-157zM630 473v157h158v-157h-158zM788 158v315h158v-315h-158z" />
<glyph unicode="T" d="M158 1261v157h788v-157h-316v-1261h-157v1261h-315z" />
<glyph unicode="U" d="M158 158v1260h157v-1260h-157zM315 0v158h473v-158h-473zM788 158v1260h158v-1260h-158z" />
<glyph unicode="V" d="M158 788v630h157v-630h-157zM315 315v473h158v-473h-158zM473 0v315h157v-315h-157zM630 315v473h158v-473h-158zM788 788v630h158v-630h-158z" />
<glyph unicode="W" d="M158 158v1260h157v-1260h-157zM315 0v158h158v-158h-158zM473 158v472h157v-472h-157zM630 0v158h158v-158h-158zM788 158v1260h158v-1260h-158z" />
<glyph unicode="X" d="M158 0v315h157v-315h-157zM158 1103v315h157v-315h-157zM315 315v315h158v-315h-158zM315 788v315h158v-315h-158zM473 630v158h157v-158h-157zM630 315v315h158v-315h-158zM630 788v315h158v-315h-158zM788 0v315h158v-315h-158zM788 1103v315h158v-315h-158z" />
<glyph unicode="Y" d="M158 946v472h157v-472h-157zM315 630v316h158v-316h-158zM473 0v630h157v-630h-157zM630 630v316h158v-316h-158zM788 946v472h158v-472h-158z" />
<glyph unicode="Z" d="M158 0v473h157v-315h631v-158h-788zM158 1261v157h788v-472h-158v315h-630zM315 473v157h158v-157h-158zM473 630v158h157v-158h-157zM630 788v158h158v-158h-158z" />
<glyph unicode="[" d="M315 0v1576h473v-158h-315v-1576h315v-157h-473v315z" />
<glyph unicode="\" d="M158 1103v315h157v-315h-157zM315 788v315h158v-315h-158zM473 473v315h157v-315h-157zM630 158v315h158v-315h-158zM788 158h158v-316h-158v316z" />
<glyph unicode="]" d="M315 -158h315v1576h-315v158h473v-1891h-473v157z" />
<glyph unicode="^" d="M158 630v158h157v-158h-157zM315 788v315h158v-315h-158zM473 1103v315h157v-315h-157zM630 788v315h158v-315h-158zM788 630v158h158v-158h-158z" />
<glyph unicode="_" d="M0 -315h1103v-158h-1103v158z" />
<glyph unicode="`" d="M315 1261v157h315v-157h158v-158h-315v158h-158z" />
<glyph unicode="a" d="M158 158v315h157v-315h-157zM315 0v158h473v315h-473v157h473v316h158v-946h-631zM315 946v157h473v-157h-473z" />
<glyph unicode="b" d="M158 0v1576h157v-473h473v-157h-473v-788h473v-158h-630zM788 158v788h158v-788h-158z" />
<glyph unicode="c" d="M158 315v473h157v-473h-157zM315 158v157h158v-157h-158zM315 788v158h158v-158h-158zM473 0v158h473v-158h-473zM473 946v157h473v-157h-473z" />
<glyph unicode="d" d="M158 158v788h157v-788h-157zM315 0v158h473v788h-473v157h473v473h158v-1576h-631z" />
<glyph unicode="e" d="M158 158v788h157v-316h473v316h158v-473h-631v-315h-157zM315 0v158h631v-158h-631zM315 946v157h473v-157h-473z" />
<glyph unicode="f" d="M158 788v158h157v315h158v-315h315v-158h-315v-788h-158v788h-157zM473 1261v157h473v-157h-473z" />
<glyph unicode="g" d="M158 -158h157v-157h-157v157zM158 158v788h157v-788h-157zM315 0v158h473v788h-473v157h631v-1418h-158v315h-473zM315 -315h473v-158h-473v158z" />
<glyph unicode="h" d="M158 0v1418h157v-472h158v-158h-158v-788h-157zM473 946v157h315v-157h-315zM788 0v946h158v-946h-158z" />
<glyph unicode="i" d="M315 946v157h315v-1103h-157v946h-158zM473 1261v157h157v-157h-157z" />
<glyph unicode="j" d="M315 -158h315v-157h-315v157zM473 946v157h315v-1261h-158v1104h-157zM630 1261v157h158v-157h-158z" />
<glyph unicode="k" d="M158 0v1418h157v-788h158v-157h-158v-473h-157zM473 315v158h157v-158h-157zM473 630v158h157v-158h-157zM630 158v157h158v-157h-158zM630 788v158h158v-158h-158zM788 0v158h158v-158h-158zM788 946v157h158v-157h-158z" />
<glyph unicode="l" d="M315 1261v157h315v-1418h-157v1261h-158z" />
<glyph unicode="m" d="M158 0v1103h315v-157h-158v-946h-157zM473 0v946h157v-946h-157zM630 946v157h158v-157h-158zM788 0v946h158v-946h-158z" />
<glyph unicode="n" d="M158 0v1103h157v-157h158v-158h-158v-788h-157zM473 946v157h315v-157h-315zM788 0v946h158v-946h-158z" />
<glyph unicode="o" d="M158 158v788h157v-788h-157zM315 0v158h473v-158h-473zM315 946v157h473v-157h-473zM788 158v788h158v-788h-158z" />
<glyph unicode="p" d="M158 0v1103h630v-157h-473v-788h473v-158h-473v-473h-157v473zM788 158v788h158v-788h-158z" />
<glyph unicode="q" d="M158 158v788h157v-788h-157zM315 0v158h473v788h-473v157h631v-1576h-158v473h-473z" />
<glyph unicode="r" d="M158 0v1103h157v-157h158v-158h-158v-788h-157zM473 946v157h315v-157h-315zM788 788v158h158v-158h-158z" />
<glyph unicode="s" d="M158 0v158h630v-158h-630zM158 630v316h157v-316h-157zM315 473v157h473v-157h-158h-315zM315 946v157h631v-157h-631zM788 158v315h158v-315h-158z" />
<glyph unicode="t" d="M158 946v157h157v315h158v-315h315v-157h-315v-788h-158v788h-157zM473 0v158h473v-158h-473z" />
<glyph unicode="u" d="M158 158v945h157v-945h-157zM315 0v158h315v-158h-315zM630 158v157h158v788h158v-1103h-158v158h-158z" />
<glyph unicode="v" d="M158 630v473h157v-473h-157zM315 315v315h158v-315h-158zM473 0v315h157v-315h-157zM630 315v315h158v-315h-158zM788 630v473h158v-473h-158z" />
<glyph unicode="w" d="M158 158v945h157v-945h-157zM315 0v158h158v-158h-158zM473 158v472h157v-472h-157zM630 0v158h158v-158h-158zM788 158v945h158v-945h-158z" />
<glyph unicode="x" d="M158 0v315h157v-315h-157zM158 788v315h157v-315h-157zM315 315v158h158v-158h-158zM315 630v158h158v-158h-158zM473 473v157h157v-157h-157zM630 315v158h158v-158h-158zM630 630v158h158v-158h-158zM788 0v315h158v-315h-158zM788 788v315h158v-315h-158z" />
<glyph unicode="y" d="M158 -315h157v-158h-157v158zM158 630v473h157v-473h-157zM315 -158h158v-157h-158v157zM315 158v472h158v-472h-158zM473 158h157v-316h-157v316zM630 158v472h158v-472h-158zM788 630v473h158v-473h-158z" />
<glyph unicode="z" d="M158 0v315h157v-157h631v-158h-788zM158 946v157h788v-315h-158v158h-630zM315 315v158h158v-158h-158zM473 473v157h157v-157h-157zM630 630v158h158v-158h-158z" />
<glyph unicode="{" d="M158 630v158h315v-158h-315zM473 473v157h157v-157h-157zM473 788v158h157v-158h-157zM630 -158v631h158v-631h-158zM630 946v472h158v-472h-158zM788 -158h315v-157h-315v157zM788 1418v158h315v-158h-315z" />
<glyph unicode="|" d="M473 -315v1891h157v-1891h-157z" />
<glyph unicode="}" d="M158 -158h315v-157h-315v157zM158 1418v158h315v-158h-315zM473 -158v631h157v-631h-157zM473 946v472h157v-472h-157zM630 473v157h158v-157h-158zM630 788v158h158v-158h-158zM788 630v158h315v-158h-315z" />
<glyph unicode="~" d="M158 473v315h157v-315h-157zM315 788v158h158v-158h-158zM473 630v158h157v-158h-157zM630 473v157h158v-157h-158zM788 630v316h158v-316h-158z" />
<glyph d="M0 -473v1103h630h473v-1103h-1103zM158 946v157h157v-157h-157zM158 1261v157h157v-157h-157zM315 158h158v-316h-158v-157h473v157h-158v631h-157v-158h-158v-157zM315 788v158h473v-158h-473zM315 1103v158h473v-158h-473zM315 1418v158h473v-158h-473zM788 946v157 h158v-157h-158zM788 1261v157h158v-157h-158z" />
<glyph d="M0 -475v1106h1106v-1106h-1106zM157 -316h634v157h159l-2 475h-157v159h-634v-791zM159 950v156h156v-156h-156zM159 1266v156h156v-156h-156zM316 -159v474h474v-474h-474zM316 791v157h474v-157h-474zM316 1107v158h474v-158h-474zM316 1423v158h474v-158h-474z M791 950v156h157v-156h-157zM791 1266v156h157v-156h-157z" />
<glyph d="M0 -473v1103h1103v-1103h-1103zM158 -315h157v315h315v158h-315v157h631v158h-788v-788zM158 946v157h157v-157h-157zM158 1261v157h157v-157h-157zM315 788v158h473v-158h-473zM315 1103v158h473v-158h-473zM315 1418v158h473v-158h-473zM788 946v157h158v-157h-158z M788 1261v157h158v-157h-158z" />
<glyph d="M0 -473v1103h1103v-1103h-1103zM158 -158h157v-157h473v157h158v473h-158v158h-473v-158h-157v-473zM158 1261v157h157v-157h-157zM315 -158v473h473v-473h-473zM315 788v158h473v-158h-473zM315 1103v158h473v157h158v-472h-158v157h-473zM315 1418v158h473v-158h-473z M473 0h157v158h-157v-158z" />
<glyph d="M0 -473v1103h1103v-1103h-1103zM158 -315h630v157h158v473h-158v158h-630v-788zM158 1261v157h157v-157h-157zM315 -158v473h473v-473h-473zM315 788v158h473v-158h-473zM315 1103v158h473v157h158v-472h-158v157h-473zM315 1418v158h473v-158h-473z" />
<glyph unicode="&#xa0;" />
<glyph unicode="&#xa1;" d="M473 0v946h157v-946h-157zM473 1103v315h157v-315h-157z" />
<glyph unicode="&#xa2;" d="M158 158v788h157v-788h-157zM315 158h158v472h157v-472h316v-158h-473v-158h-158v316zM315 946v157h473v158h158v-315h-158v-316h-158v316h-315z" />
<glyph unicode="&#xa3;" d="M158 0v158h157v472h-157v158h157v473h158v-473h315v-158h-315v-472h473v-158h-788zM473 1261v157h315v-157h-315zM788 1103v158h158v-158h-158z" />
<glyph unicode="&#xa4;" d="M158 158v157h157v-157h-157zM158 473v315h157v-315h-157zM158 946v157h157v-157h-157zM315 315v158h158v-158h-158zM315 788v158h158v-158h-158zM473 158v157h157v-157h-157zM473 946v157h157v-157h-157zM630 315v158h158v-158h-158zM630 788v158h158v-158h-158zM788 158 v157h158v-157h-158zM788 473v315h158v-315h-158zM788 946v157h158v-157h-158z" />
<glyph unicode="&#xa5;" d="M158 158v157h315v158h-315v157h157v316h158v-316h157v316h158v-316h158v-157h-316v-158h316v-157h-316v-158h-157v158h-315zM158 946v472h157v-472h-157zM788 946v472h158v-472h-158z" />
<glyph unicode="&#xa6;" d="M473 -315v788h157v-788h-157zM473 788v788h157v-788h-157z" />
<glyph unicode="&#xa7;" d="M158 -158h472v-157h-472v157zM158 473v315h157v-315h-157zM315 315v158h158v-158h-158zM315 788v473h158v-315h157v-158h-315zM473 158v157h315v-473h-158v316h-157zM473 1261v157h473v-157h-473zM630 630v158h158v-158h-158zM788 315v315h158v-315h-158z" />
<glyph unicode="&#xa8;" d="M158 1261v157h315v-157h-315zM630 1261v157h316v-157h-316z" />
<glyph unicode="&#xa9;" d="M0 315v788h158v-788h-158zM158 158v157h157v-157h-157zM158 1103v158h157v-158h-157zM315 0v158h473v-158h-473zM315 473v473h158v-473h-158zM315 1261v157h473v-157h-473zM473 315v158h315v-158h-315zM473 946v157h315v-157h-315zM788 158v157h158v-157h-158zM788 1103 v158h158v-158h-158zM946 315v788h157v-788h-157z" />
<glyph unicode="&#xaa;" d="M158 315v158h788v-158h-788zM158 788v158h157v-158h-157zM315 630v158h473v158h-473v157h473v158h158v-631h-631zM315 1261v157h473v-157h-473z" />
<glyph unicode="&#xab;" d="M158 473v157h157v-157h-157zM315 315v158h158v-158h-158zM315 630v158h158v-158h-158zM473 158v157h157v-157h-157zM473 788v158h157v-158h-157zM630 473v157h158v-157h-158zM788 315v158h158v-158h-158zM788 630v158h158v-158h-158zM946 158v157h157v-157h-157zM946 788 v158h157v-158h-157z" />
<glyph unicode="&#xac;" d="M158 788v158h788v-473h-158v315h-630z" />
<glyph unicode="&#xad;" d="M158 630v158h788v-158h-788z" />
<glyph unicode="&#xae;" d="M0 315v788h158v-788h-158zM158 158v157h157v-157h-157zM158 1103v158h157v-158h-157zM315 0v158h473v-158h-473zM315 315v788h315v-157h-157v-158h157v-158h-157v-315h-158zM315 1261v157h473v-157h-473zM630 315v315h158v-315h-158zM630 788v158h158v-158h-158zM788 158 v157h158v-157h-158zM788 1103v158h158v-158h-158zM946 315v788h157v-788h-157z" />
<glyph unicode="&#xaf;" d="M158 1418v158h788v-158h-788z" />
<glyph unicode="&#xb0;" d="M158 946v315h157v-315h-157zM315 788v158h315v-158h-157h-158zM315 1261v157h315v-157h-315zM630 946v315h158v-315h-158z" />
<glyph unicode="&#xb1;" d="M158 315v158h315v315h-315v158h315v315h157v-315h316v-158h-316v-315h316v-158h-788z" />
<glyph unicode="&#xb2;" d="M158 630v316h157v-158h473v-158h-630zM158 1261v157h472v-157h-472zM315 946v157h315v-157h-315zM630 1103v158h158v-158h-158z" />
<glyph unicode="&#xb3;" d="M158 630v158h472v-158h-472zM158 1261v157h472v-157h-472zM315 946v157h315v-157h-315zM630 788v158h158v-158h-158zM630 1103v158h158v-158h-158z" />
<glyph unicode="&#xb4;" d="M315 1261v157h158v158h315v-158h-158v-157h-315z" />
<glyph unicode="&#xb5;" d="M158 0v946h157v-631h158v-157h-158v-631h-157v473zM473 0v158h315v-158h-158h-157zM788 158v788h158v-788h-158z" />
<glyph unicode="&#xb6;" d="M158 788v473h157v157h631v-1733h-158v1576h-158v-1576h-157v945h-158v158h-157z" />
<glyph unicode="&#xb7;" d="M315 630v316h315v-316h-315z" />
<glyph unicode="&#xb8;" d="M315 -158h315v-157h-315v157zM630 0h158v-158h-158v158z" />
<glyph unicode="&#xb9;" d="M315 630v158h158v315h-158v158h158v157h157v-630h158v-158h-473z" />
<glyph unicode="&#xba;" d="M158 315v158h788v-158h-788zM158 788v473h157v-473h-157zM315 630v158h473v-158h-473zM315 1261v157h473v-157h-473zM788 788v473h158v-473h-158z" />
<glyph unicode="&#xbb;" d="M158 158v157h157v-157h-157zM158 788v158h157v-158h-157zM315 315v158h158v-158h-158zM315 630v158h158v-158h-158zM473 473v157h157v-157h-157zM630 158v157h158v-157h-158zM630 788v158h158v-158h-158zM788 315v158h158v-158h-158zM788 630v158h158v-158h-158zM946 473 v157h157v-157h-157z" />
<glyph unicode="&#xbc;" d="M158 158v157h157v-157h-157zM158 1103v158h157v157h158v-788h-158v473h-157zM315 315v158h158v-158h-158zM473 473v157h157v-157h-157zM630 158v315h158v-158h158v158h-158v157h158v158h157v-788h-157v158h-316zM630 630v158h158v-158h-158zM788 788v158h158v-158h-158z M946 946v157h157v-157h-157z" />
<glyph unicode="&#xbd;" d="M158 158v157h157v-157h-157zM158 1103v158h157v157h158v-788h-158v473h-157zM315 315v158h158v-158h-158zM473 473v157h157v-157h-157zM630 0v315h158v-157h315v-158h-473zM630 630v158h158v158h158v-316h-316zM788 315v158h158v-158h-158zM946 473v157h157v-157h-157z M946 946v157h157v-157h-157z" />
<glyph unicode="&#xbe;" d="M158 158v157h157v-157h-157zM158 630v158h315v-158h-315zM158 1261v157h315v-157h-315zM315 315v158h158v-158h-158zM315 946v157h158v-157h-158zM473 473v157h157v-157h-157zM473 788v158h157v-158h-157zM473 1103v158h157v-158h-157zM630 158v315h158v-158h158v158 h-158v157h158v158h157v-788h-157v158h-316zM630 630v158h158v-158h-158zM788 788v158h158v-158h-158zM946 946v157h157v-157h-157z" />
<glyph unicode="&#xbf;" d="M158 158v315h157v-315h-157zM315 0v158h473v-158h-473zM315 473v157h158v-157h-158zM473 630v316h157v-316h-157zM473 1103v315h157v-315h-157zM788 158v315h158v-315h-158z" />
<glyph unicode="&#xc0;" d="M158 0v1261h157v-473h473v473h158v-1261h-158v630h-473v-630h-157zM315 1261v157h473v-157h-473zM315 1733v158h158v-158h-158zM473 1576v157h157v-157h-157z" />
<glyph unicode="&#xc1;" d="M158 0v1261h157v-473h473v473h158v-1261h-158v630h-473v-630h-157zM315 1261v157h473v-157h-473zM473 1576v157h157v-157h-157zM630 1733v158h158v-158h-158z" />
<glyph unicode="&#xc2;" d="M158 0v1261h157v-473h473v473h158v-1261h-158v630h-473v-630h-157zM315 1261v157h473v-157h-473zM315 1576v157h158v-157h-158zM473 1733v158h157v-158h-157zM630 1576v157h158v-157h-158z" />
<glyph unicode="&#xc3;" d="M158 0v1261h157v-473h473v473h158v-1261h-158v630h-473v-630h-157zM158 1576v157h157v-157h-157zM315 1261v157h473v-157h-473zM315 1733v158h315v-158h158v-157h-315v157h-158zM788 1733v158h158v-158h-158z" />
<glyph unicode="&#xc4;" d="M158 0v1261h157v-473h473v473h158v-1261h-158v630h-473v-630h-157zM315 1261v157h473v-157h-473zM315 1576v157h158v-157h-158zM630 1576v157h158v-157h-158z" />
<glyph unicode="&#xc5;" d="M158 0v1261h157v-473h473v473h158v-1261h-158v630h-473v-630h-157zM315 1261v157h158v158h157v-158h158v-157h-473zM315 1576v157h158v-157h-158zM473 1733v158h157v-158h-157zM630 1576v157h158v-157h-158z" />
<glyph unicode="&#xc6;" d="M0 0v473h158v-473h-158zM158 473v473h157v-316h315v631h-157v157h630v-157h-315v-473h315v-158h-315v-472h315v-158h-473v473h-472zM315 946v315h158v-315h-158z" />
<glyph unicode="&#xc7;" d="M158 315v788h157v-788h-157zM315 -158h315v-157h-315v157zM315 158v157h158v-157h-158zM315 1103v158h158v-158h-158zM473 0v158h473v-158h-158v-158h-158v158h-157zM473 1261v157h473v-157h-473z" />
<glyph unicode="&#xc8;" d="M158 0v1418h788v-157h-631v-473h473v-158h-473v-472h631v-158h-788zM315 1733v158h158v-158h-158zM473 1576v157h157v-157h-157z" />
<glyph unicode="&#xc9;" d="M158 0v1418h788v-157h-631v-473h473v-158h-473v-472h631v-158h-788zM473 1576v157h157v-157h-157zM630 1733v158h158v-158h-158z" />
<glyph unicode="&#xca;" d="M158 0v1418h788v-157h-631v-473h473v-158h-473v-472h631v-158h-788zM315 1576v157h158v-157h-158zM473 1733v158h157v-158h-157zM630 1576v157h158v-157h-158z" />
<glyph unicode="&#xcb;" d="M158 0v1418h788v-157h-631v-473h473v-158h-473v-472h631v-158h-788zM315 1576v157h158v-157h-158zM630 1576v157h158v-157h-158z" />
<glyph unicode="&#xcc;" d="M158 0v158h315v1103h-315v157h788v-157h-316v-1103h316v-158h-788zM315 1733v158h158v-158h-158zM473 1576v157h157v-157h-157z" />
<glyph unicode="&#xcd;" d="M158 0v158h315v1103h-315v157h788v-157h-316v-1103h316v-158h-788zM473 1576v157h157v-157h-157zM630 1733v158h158v-158h-158z" />
<glyph unicode="&#xce;" d="M158 0v158h315v1103h-315v157h788v-157h-316v-1103h316v-158h-788zM315 1576v157h158v-157h-158zM473 1733v158h157v-158h-157zM630 1576v157h158v-157h-158z" />
<glyph unicode="&#xcf;" d="M158 0v158h315v1103h-315v157h788v-157h-316v-1103h316v-158h-788zM315 1576v157h158v-157h-158zM630 1576v157h158v-157h-158z" />
<glyph unicode="&#xd0;" d="M0 630v158h158v630h472v-157h-315v-473h158v-158h-158v-472h315v-158h-472v630h-158zM630 158v157h158v-157h-158zM630 1103v158h158v-158h-158zM788 315v788h158v-788h-158z" />
<glyph unicode="&#xd1;" d="M158 0v1418h157v-157h158v-315h-158v-946h-157zM158 1576v157h157v-157h-157zM315 1733v158h315v-158h158v-157h-315v157h-158zM473 630v316h157v-316h-157zM630 315v315h158v788h158v-1418h-158v315h-158zM788 1733v158h158v-158h-158z" />
<glyph unicode="&#xd2;" d="M158 158v1103h157v-1103h-157zM315 0v158h473v-158h-473zM315 1261v157h473v-157h-473zM315 1733v158h158v-158h-158zM473 1576v157h157v-157h-157zM788 158v1103h158v-1103h-158z" />
<glyph unicode="&#xd3;" d="M158 158v1103h157v-1103h-157zM315 0v158h473v-158h-473zM315 1261v157h473v-157h-473zM473 1576v157h157v-157h-157zM630 1733v158h158v-158h-158zM788 158v1103h158v-1103h-158z" />
<glyph unicode="&#xd4;" d="M158 158v1103h157v-1103h-157zM315 0v158h473v-158h-473zM315 1261v157h473v-157h-473zM315 1576v157h158v-157h-158zM473 1733v158h157v-158h-157zM630 1576v157h158v-157h-158zM788 158v1103h158v-1103h-158z" />
<glyph unicode="&#xd5;" d="M158 158v1103h157v-1103h-157zM158 1576v157h157v-157h-157zM315 0v158h473v-158h-473zM315 1261v157h473v-157h-473zM315 1733v158h315v-158h158v-157h-315v157h-158zM788 158v1103h158v-1103h-158zM788 1733v158h158v-158h-158z" />
<glyph unicode="&#xd6;" d="M158 158v1103h157v-1103h-157zM315 0v158h473v-158h-473zM315 1261v157h473v-157h-473zM315 1576v157h158v-157h-158zM630 1576v157h158v-157h-158zM788 158v1103h158v-1103h-158z" />
<glyph unicode="&#xd7;" d="M158 158v157h157v-157h-157zM158 788v158h157v-158h-157zM315 315v158h158v-158h-158zM315 630v158h158v-158h-158zM473 473v157h157v-157h-157zM630 315v158h158v-158h-158zM630 630v158h158v-158h-158zM788 158v157h158v-157h-158zM788 788v158h158v-158h-158z" />
<glyph unicode="&#xd8;" d="M158 0v158h157v-158h-157zM158 315v788h157v-630h158v-315h-158v157h-157zM315 1103v158h158v-158h-158zM473 0v158h157v-158h-157zM473 473v473h157v-473h-157zM473 1261v157h157v-157h-157zM630 158v157h158v-157h-158zM630 946v315h158v-158h158v-788h-158v631h-158z M788 1261v157h158v-157h-158z" />
<glyph unicode="&#xd9;" d="M158 158v1260h157v-1260h-157zM315 0v158h473v-158h-473zM315 1733v158h158v-158h-158zM473 1576v157h157v-157h-157zM788 158v1260h158v-1260h-158z" />
<glyph unicode="&#xda;" d="M158 158v1260h157v-1260h-157zM315 0v158h473v-158h-473zM473 1576v157h157v-157h-157zM630 1733v158h158v-158h-158zM788 158v1260h158v-1260h-158z" />
<glyph unicode="&#xdb;" d="M158 158v1260h157v-1260h-157zM315 0v158h473v-158h-473zM315 1576v157h158v-157h-158zM473 1733v158h157v-158h-157zM630 1576v157h158v-157h-158zM788 158v1260h158v-1260h-158z" />
<glyph unicode="&#xdc;" d="M158 158v1260h157v-1260h-157zM315 0v158h473v-158h-473zM315 1576v157h158v-157h-158zM630 1576v157h158v-157h-158zM788 158v1260h158v-1260h-158z" />
<glyph unicode="&#xdd;" d="M158 1103v473h157v-473h-157zM315 630v473h158v-473h-158zM473 0v630h157v-630h-157zM473 1576v157h157v-157h-157zM630 630v473h158v-473h-158zM630 1733v158h158v-158h-158zM788 1103v473h158v-473h-158z" />
<glyph unicode="&#xde;" d="M158 0v1418h157v-315h473v-157h-473v-473h473v-158h-473v-315h-157zM788 473v473h158v-473h-158z" />
<glyph unicode="&#xdf;" d="M158 0v1418h157v-1418h-157zM315 1418v158h315v-158h-315zM473 0v158h315v-158h-315zM473 788v158h157v-158h-157zM630 630v158h158v-158h-158zM630 946v472h158v-472h-158zM788 158v472h158v-472h-158z" />
<glyph unicode="&#xe0;" d="M158 158v315h157v-315h-157zM315 0v158h473v315h-473v157h473v316h158v-946h-631zM315 946v157h473v-157h-473zM315 1418v158h158v-158h-158zM473 1261v157h157v-157h-157z" />
<glyph unicode="&#xe1;" d="M158 158v315h157v-315h-157zM315 0v158h473v315h-473v157h473v316h158v-946h-631zM315 946v157h473v-157h-473zM473 1261v157h157v-157h-157zM630 1418v158h158v-158h-158z" />
<glyph unicode="&#xe2;" d="M158 158v315h157v-315h-157zM315 0v158h473v315h-473v157h473v316h158v-946h-631zM315 946v157h473v-157h-473zM315 1261v157h158v-157h-158zM473 1418v158h157v-158h-157zM630 1261v157h158v-157h-158z" />
<glyph unicode="&#xe3;" d="M158 158v315h157v-315h-157zM158 1261v157h157v-157h-157zM315 0v158h473v315h-473v157h473v316h158v-946h-631zM315 946v157h473v-157h-473zM315 1418v158h315v-158h158v-157h-315v157h-158zM788 1418v158h158v-158h-158z" />
<glyph unicode="&#xe4;" d="M158 158v315h157v-315h-157zM315 0v158h473v315h-473v157h473v316h158v-946h-631zM315 946v157h473v-157h-473zM315 1261v157h158v-157h-158zM630 1261v157h158v-157h-158z" />
<glyph unicode="&#xe5;" d="M158 158v315h157v-315h-157zM315 0v158h473v315h-473v157h473v316h158v-946h-631zM315 946v157h158v158h157v-158h158v-157h-473zM315 1261v157h158v-157h-158zM473 1418v158h157v-158h-157zM630 1261v157h158v-157h-158z" />
<glyph unicode="&#xe6;" d="M158 158v315h157v-315h-157zM158 788v158h157v-158h-157zM315 0v158h158v315h-158v157h158v316h-158v157h473v-157h-158v-316h158v316h158v-473h-316v-315h158v-158h-473zM788 158v157h158v-157h-158z" />
<glyph unicode="&#xe7;" d="M158 315v473h157v-473h-157zM315 -158h315v-157h-315v157zM315 158v157h158v-157h-158zM315 788v158h158v-158h-158zM473 0v158h473v-158h-158v-158h-158v158h-157zM473 946v157h473v-157h-473z" />
<glyph unicode="&#xe8;" d="M158 158v788h157v-316h473v316h158v-473h-631v-315h-157zM315 0v158h631v-158h-631zM315 946v157h473v-157h-473zM315 1418v158h158v-158h-158zM473 1261v157h157v-157h-157z" />
<glyph unicode="&#xe9;" d="M158 158v788h157v-316h473v316h158v-473h-631v-315h-157zM315 0v158h631v-158h-631zM315 946v157h473v-157h-473zM315 1261v157h158v-157h-158zM473 1418v158h157v-158h-157z" />
<glyph unicode="&#xea;" d="M158 158v788h157v-316h473v316h158v-473h-631v-315h-157zM315 0v158h631v-158h-631zM315 946v157h473v-157h-473zM315 1261v157h158v-157h-158zM473 1418v158h157v-158h-157zM630 1261v157h158v-157h-158z" />
<glyph unicode="&#xeb;" d="M158 158v788h157v-316h473v316h158v-473h-631v-315h-157zM315 0v158h631v-158h-631zM315 946v157h473v-157h-473zM315 1261v157h158v-157h-158zM630 1261v157h158v-157h-158z" />
<glyph unicode="&#xec;" d="M158 946v157h315v-1103h-158v946h-157zM158 1418v158h157v-158h-157zM315 1261v157h158v-157h-158z" />
<glyph unicode="&#xed;" d="M158 946v157h315v-1103h-158v946h-157zM158 1261v157h157v-157h-157zM315 1418v158h158v-158h-158z" />
<glyph unicode="&#xee;" d="M315 946v157h315v-1103h-157v946h-158zM315 1261v157h158v-157h-158zM473 1418v158h157v-158h-157zM630 1261v157h158v-157h-158z" />
<glyph unicode="&#xef;" d="M315 946v157h315v-1103h-157v946h-158zM315 1261v157h158v-157h-158zM630 1261v157h158v-157h-158z" />
<glyph unicode="&#xf0;" d="M158 158v630h157v-630h-157zM315 0v158h473v-158h-473zM315 788v158h315v315h158v-473h-158h-315zM315 1103v158h158v-158h-158zM315 1418v158h158v-158h-158zM473 1261v157h157v-157h-157zM630 1418v158h158v-158h-158zM788 158v630h158v-630h-158z" />
<glyph unicode="&#xf1;" d="M158 0v1103h157v-157h158v-158h-158v-788h-157zM158 1261v157h157v-157h-157zM315 1418v158h315v-158h158v-157h-315v157h-158zM473 946v157h315v-157h-315zM788 0v946h158v-946h-158zM788 1418v158h158v-158h-158z" />
<glyph unicode="&#xf2;" d="M158 158v788h157v-788h-157zM315 0v158h473v-158h-473zM315 946v157h473v-157h-473zM315 1418v158h158v-158h-158zM473 1261v157h157v-157h-157zM788 158v788h158v-788h-158z" />
<glyph unicode="&#xf3;" d="M158 158v788h157v-788h-157zM315 0v158h473v-158h-473zM315 946v157h473v-157h-473zM473 1261v157h157v-157h-157zM630 1418v158h158v-158h-158zM788 158v788h158v-788h-158z" />
<glyph unicode="&#xf4;" d="M158 158v788h157v-788h-157zM315 0v158h473v-158h-473zM315 946v157h473v-157h-473zM315 1261v157h158v-157h-158zM473 1418v158h157v-158h-157zM630 1261v157h158v-157h-158zM788 158v788h158v-788h-158z" />
<glyph unicode="&#xf5;" d="M158 158v788h157v-788h-157zM158 1261v157h157v-157h-157zM315 0v158h473v-158h-473zM315 946v157h473v-157h-473zM315 1418v158h315v-158h158v-157h-315v157h-158zM788 158v788h158v-788h-158zM788 1418v158h158v-158h-158z" />
<glyph unicode="&#xf6;" d="M158 158v788h157v-788h-157zM315 0v158h473v-158h-473zM315 946v157h473v-157h-473zM315 1261v157h158v-157h-158zM630 1261v157h158v-157h-158zM788 158v788h158v-788h-158z" />
<glyph unicode="&#xf7;" d="M0 630v158h946v-158h-946zM315 158v315h315v-315h-315zM315 946v315h315v-315h-315z" />
<glyph unicode="&#xf8;" d="M158 0h157v-158h-157v158zM158 158v630h157v-473h158v-157h315v-158h-158h-315v158h-157zM315 788v158h473v-158h158v-630h-158v472h-158v158h-315zM473 315v315h157v-315h-157zM788 946v157h158v-157h-158z" />
<glyph unicode="&#xf9;" d="M158 158v945h157v-945h-157zM315 0v158h315v-158h-315zM315 1418v158h158v-158h-158zM473 1261v157h157v-157h-157zM630 158v157h158v788h158v-1103h-158v158h-158z" />
<glyph unicode="&#xfa;" d="M158 158v945h157v-945h-157zM315 0v158h315v-158h-315zM473 1261v157h157v-157h-157zM630 158v157h158v788h158v-1103h-158v158h-158zM630 1418v158h158v-158h-158z" />
<glyph unicode="&#xfb;" d="M158 158v945h157v-945h-157zM315 0v158h315v-158h-315zM315 1261v157h158v-157h-158zM473 1418v158h157v-158h-157zM630 158v157h158v788h158v-1103h-158v158h-158zM630 1261v157h158v-157h-158z" />
<glyph unicode="&#xfc;" d="M158 158v945h157v-945h-157zM315 0v158h315v-158h-315zM315 1261v157h158v-157h-158zM630 158v157h158v788h158v-1103h-158v158h-158zM630 1261v157h158v-157h-158z" />
<glyph unicode="&#xfd;" d="M158 -315h157v-158h-157v158zM158 630v473h157v-473h-157zM315 -158h158v-157h-158v157zM315 158v472h158v-472h-158zM473 158h157v-316h-157v316zM473 1261v157h157v-157h-157zM630 158v472h158v-472h-158zM630 1418v158h158v-158h-158zM788 630v473h158v-473h-158z" />
<glyph unicode="&#xfe;" d="M158 0v1418h157v-472h315v-158h-315v-630h315v-158h-315v-473h-157v473zM630 158v157h158v-157h-158zM630 630v158h158v-158h-158zM788 315v315h158v-315h-158z" />
<glyph unicode="&#xff;" d="M158 -315h157v-158h-157v158zM158 630v473h157v-473h-157zM315 -158h158v-157h-158v157zM315 158v472h158v-472h-158zM315 1261v157h158v-157h-158zM473 158h157v-316h-157v316zM630 158v472h158v-472h-158zM630 1261v157h158v-157h-158zM788 630v473h158v-473h-158z" />
<glyph unicode="&#x152;" d="M0 315v788h158v-788h-158zM158 158v157h157v-157h-157zM158 1103v158h157v-158h-157zM315 0v158h158v1103h-158v157h631v-157h-316v-473h316v-158h-316v-472h316v-158h-631z" />
<glyph unicode="&#x153;" d="M158 158v788h157v-788h-157zM315 0v158h158v-158h-158zM315 946v157h158v-157h-158zM473 158v788h157v-316h158v316h158v-473h-316v-315h-157zM630 0v158h316v-158h-316zM630 946v157h158v-157h-158z" />
<glyph unicode="&#x178;" d="M158 946v472h157v-472h-157zM315 630v316h158v-316h-158zM315 1576v157h158v-157h-158zM473 0v630h157v-630h-157zM630 630v316h158v-316h-158zM630 1576v157h158v-157h-158zM788 946v472h158v-472h-158z" />
<glyph unicode="&#x2c6;" d="M315 1418v158h158v-158h-158zM473 1576v157h157v-157h-157zM630 1418v158h158v-158h-158z" />
<glyph unicode="&#x2dc;" d="M158 1103v158h157v-158h-157zM315 1261v157h315v-157h158v-158h-315v158h-158zM788 1261v157h158v-157h-158z" />
<glyph unicode="&#x2013;" d="M158 473v157h788v-157h-788z" />
<glyph unicode="&#x2014;" d="M0 475v156h1106v-156h-315h-791z" />
<glyph unicode="&#x2018;" d="M473 946v315h157v157h316v-157h-158v-315h-315z" />
<glyph unicode="&#x2019;" d="M315 946v157h158v315h315v-315h-158v-157h-315z" />
<glyph unicode="&#x201a;" d="M315 0h158v315h315v-315h-158v-158h-315v158z" />
<glyph unicode="&#x201c;" d="M0 946v315h158v157h315v-157h-158v-315h-315zM630 946v315h158v157h315v-157h-157v-315h-316z" />
<glyph unicode="&#x201d;" d="M0 946v157h158v315h315v-315h-158v-157h-315zM630 946v157h158v315h315v-315h-157v-157h-316z" />
<glyph unicode="&#x201e;" d="M0 0h158v315h315v-315h-158v-158h-315v158zM630 0h158v315h315v-315h-157v-158h-316v158z" />
<glyph unicode="&#x2022;" d="M315 473v315h158v158h315v-158h158v-315h-158v-158h-315v158h-158z" />
<glyph unicode="&#x2026;" d="M158 0v315h157v-315h-157zM473 0v315h157v-315h-157zM788 0v315h158v-315h-158z" />
<glyph unicode="&#x2039;" d="M315 473v315h158v-315h-158zM473 315v158h157v-158h-157zM473 788v158h157v-158h-157zM630 158v157h158v-157h-158zM630 946v157h158v-157h-158z" />
<glyph unicode="&#x203a;" d="M315 158v157h158v-157h-158zM315 946v157h158v-157h-158zM473 315v158h157v-158h-157zM473 788v158h157v-158h-157zM630 473v315h158v-315h-158z" />
<glyph unicode="&#x20ac;" d="M158 473v157h157v158h-157v158h157v157h158v-157h315v-158h-315v-158h315v-157h-315v-158h-158v158h-157zM473 158v157h157v-157h-157zM473 1103v158h157v-158h-157zM630 0v158h316v-158h-316zM630 1261v157h316v-157h-316z" />
<glyph unicode="&#x2122;" d="M0 1261v157h630v-157h158v157h158v-630h-158v158h-158v-158h-157v473h-158v-473h-157v473h-158z" />
<glyph unicode="&#xe000;" horiz-adv-x="1105" d="M0 1105h1105v-1105h-1105v1105z" />
<glyph unicode="&#xfb01;" horiz-adv-x="2200" d="M158 788v158h157v315h158v-315h315v-158h-315v-788h-158v788h-157zM473 1261v157h473v-157h-473zM1415 946v157h315v-1103h-157v946h-158zM1573 1261v157h157v-157h-157z" />
<glyph unicode="&#xfb02;" horiz-adv-x="2200" d="M158 788v158h157v315h158v-315h315v-158h-315v-788h-158v788h-157zM473 1261v157h473v-157h-473zM1415 1261v157h315v-1418h-157v1261h-158z" />
<glyph unicode="&#xfb03;" horiz-adv-x="3300" d="M158 788v158h157v315h158v-315h315v-158h-315v-788h-158v788h-157zM473 1261v157h473v-157h-473zM1258 788v158h157v315h158v-315h315v-158h-315v-788h-158v788h-157zM1573 1261v157h473v-157h-473zM2515 946v157h315v-1103h-157v946h-158zM2673 1261v157h157v-157h-157z " />
<glyph unicode="&#xfb04;" horiz-adv-x="3300" d="M158 788v158h157v315h158v-315h315v-158h-315v-788h-158v788h-157zM473 1261v157h473v-157h-473zM1258 788v158h157v315h158v-315h315v-158h-315v-788h-158v788h-157zM1573 1261v157h473v-157h-473zM2515 1261v157h315v-1418h-157v1261h-158z" />
</font>
</defs>
</svg>
